<svg id="visual" viewBox="0 0 1519 1020" width="1519" height="1020" xmlns="http://www.w3.org/2000/svg" xmlns:xlink="http://www.w3.org/1999/xlink" version="1.1"><rect x="0" y="0" width="1519" height="1020" fill="#f6e1d6"></rect><defs><linearGradient id="grad1_0" x1="32.9%" y1="100%" x2="100%" y2="0%"><stop offset="20.215686274509803%" stop-color="#f9f8f5" stop-opacity="1"></stop><stop offset="79.7843137254902%" stop-color="#f9f8f5" stop-opacity="1"></stop></linearGradient></defs><defs><linearGradient id="grad1_1" x1="32.9%" y1="100%" x2="100%" y2="0%"><stop offset="20.215686274509803%" stop-color="#f9f8f5" stop-opacity="1"></stop><stop offset="79.7843137254902%" stop-color="#f6ede4" stop-opacity="1"></stop></linearGradient></defs><defs><linearGradient id="grad1_2" x1="32.9%" y1="100%" x2="100%" y2="0%"><stop offset="20.215686274509803%" stop-color="#f6e1d6" stop-opacity="1"></stop><stop offset="79.7843137254902%" stop-color="#f6ede4" stop-opacity="1"></stop></linearGradient></defs><defs><linearGradient id="grad2_0" x1="0%" y1="100%" x2="67.1%" y2="0%"><stop offset="20.215686274509803%" stop-color="#f9f8f5" stop-opacity="1"></stop><stop offset="79.7843137254902%" stop-color="#f9f8f5" stop-opacity="1"></stop></linearGradient></defs><defs><linearGradient id="grad2_1" x1="0%" y1="100%" x2="67.1%" y2="0%"><stop offset="20.215686274509803%" stop-color="#f6ede4" stop-opacity="1"></stop><stop offset="79.7843137254902%" stop-color="#f9f8f5" stop-opacity="1"></stop></linearGradient></defs><defs><linearGradient id="grad2_2" x1="0%" y1="100%" x2="67.1%" y2="0%"><stop offset="20.215686274509803%" stop-color="#f6ede4" stop-opacity="1"></stop><stop offset="79.7843137254902%" stop-color="#f6e1d6" stop-opacity="1"></stop></linearGradient></defs><g transform="translate(1519, 1020)"><path d="M-823.4 0C-813.7 -110.5 -804 -221.1 -760.7 -315.1C-717.3 -409.1 -640.3 -486.5 -562.9 -562.9C-485.4 -639.2 -407.7 -714.4 -313.8 -757.6C-219.9 -800.8 -110 -812.1 0 -823.4L0 0Z" fill="#f6e7dd"></path><path d="M-548.9 0C-542.5 -73.7 -536 -147.4 -507.1 -210.1C-478.2 -272.7 -426.8 -324.4 -375.2 -375.2C-323.6 -426.1 -271.8 -476.2 -209.2 -505.1C-146.6 -533.9 -73.3 -541.4 0 -548.9L0 0Z" fill="#f7f3ec"></path><path d="M-274.5 0C-271.2 -36.8 -268 -73.7 -253.6 -105C-239.1 -136.4 -213.4 -162.2 -187.6 -187.6C-161.8 -213.1 -135.9 -238.1 -104.6 -252.5C-73.3 -266.9 -36.7 -270.7 0 -274.5L0 0Z" fill="#f9f8f5"></path></g><g transform="translate(0, 0)"><path d="M823.4 0C807.6 105.9 791.8 211.9 754.8 312.7C717.8 413.4 659.7 509 582.2 582.2C504.7 655.4 407.9 706.3 307.7 742.8C207.4 779.3 103.7 801.3 0 823.4L0 0Z" fill="#f6e7dd"></path><path d="M548.9 0C538.4 70.6 527.9 141.3 503.2 208.4C478.6 275.6 439.8 339.3 388.1 388.1C336.5 437 272 470.9 205.1 495.2C138.3 519.5 69.1 534.2 0 548.9L0 0Z" fill="#f7f3ec"></path><path d="M274.5 0C269.2 35.3 263.9 70.6 251.6 104.2C239.3 137.8 219.9 169.7 194.1 194.1C168.2 218.5 136 235.4 102.6 247.6C69.1 259.8 34.6 267.1 0 274.5L0 0Z" fill="#f9f8f5"></path></g></svg>