<svg xmlns="http://www.w3.org/2000/svg" version="1.1" xmlns:xlink="http://www.w3.org/1999/xlink" xmlns:svgjs="http://svgjs.dev/svgjs" viewBox="0 0 1422 800"><defs><radialGradient id="cccircular-grad" r="50%" cx="50%" cy="50%">
       <stop offset="0%" stop-color="#c3afa5" stop-opacity="0.5"></stop>
       <stop offset="50%" stop-color="#f6e1d6" stop-opacity="0.5"></stop>
        <stop offset="100%" stop-color="#ffffff" stop-opacity="0.5"></stop>
      </radialGradient></defs><g fill="url(#cccircular-grad)"><circle r="814" cx="711" cy="400"></circle><circle r="777" cx="711" cy="400"></circle><circle r="740" cx="711" cy="400"></circle><circle r="703" cx="711" cy="400"></circle><circle r="666" cx="711" cy="400"></circle><circle r="629" cx="711" cy="400"></circle><circle r="592" cx="711" cy="400"></circle><circle r="555" cx="711" cy="400"></circle><circle r="518" cx="711" cy="400"></circle><circle r="481" cx="711" cy="400"></circle><circle r="444" cx="711" cy="400"></circle><circle r="407" cx="711" cy="400"></circle><circle r="370" cx="711" cy="400"></circle><circle r="333" cx="711" cy="400"></circle><circle r="296" cx="711" cy="400"></circle><circle r="259" cx="711" cy="400"></circle><circle r="222" cx="711" cy="400"></circle><circle r="185" cx="711" cy="400"></circle><circle r="148" cx="711" cy="400"></circle><circle r="111" cx="711" cy="400"></circle><circle r="74" cx="711" cy="400"></circle></g></svg>