<svg data-v-fde0c5aa="" xmlns="http://www.w3.org/2000/svg" viewBox="0 0 300 300" class="iconLeftSlogan"><!----><defs data-v-fde0c5aa=""><!----></defs><rect data-v-fde0c5aa="" fill="#10002B" x="0" y="0" width="300px" height="300px" class="logo-background-square"></rect><defs data-v-fde0c5aa=""><!----></defs><g data-v-fde0c5aa="" id="0e371cee-a84c-4b85-b977-5e2d0daf581e" fill="#9D4EDD" transform="matrix(2.0530325033887995,0,0,2.0530325033887995,97.46142046592355,119.60312121734557)"><path d="M7.32 3.79L7.32 4.38C7.32 4.52 7.39 4.62 7.53 4.65C7.62 4.68 7.88 4.73 8.33 4.82L5.80 11.19C5.68 11.44 5.59 11.82 5.47 12.29C5.35 11.79 5.24 11.42 5.14 11.20L2.58 4.83C2.88 4.77 3.12 4.70 3.30 4.68C3.49 4.65 3.58 4.55 3.58 4.41L3.58 3.79L0.25 3.79L0.25 4.41C0.25 4.55 0.32 4.63 0.46 4.66C0.55 4.69 0.78 4.75 1.18 4.83L4.84 13.85L6.06 13.85L9.74 4.83L10.44 4.66C10.58 4.63 10.64 4.55 10.64 4.41L10.64 3.81ZM14.60 6.62C14.08 6.62 13.62 6.71 13.20 6.87C12.78 7.04 12.42 7.29 12.12 7.60C11.83 7.91 11.61 8.30 11.44 8.75C11.27 9.20 11.21 9.70 11.21 10.26C11.21 10.82 11.27 11.33 11.44 11.77C11.61 12.22 11.83 12.61 12.12 12.92C12.42 13.23 12.78 13.48 13.20 13.65C13.62 13.82 14.08 13.90 14.60 13.90C15.12 13.90 15.58 13.82 16.00 13.65C16.42 13.48 16.79 13.23 17.08 12.92C17.37 12.61 17.60 12.22 17.75 11.77C17.91 11.33 17.99 10.82 17.99 10.26C17.99 9.70 17.91 9.20 17.75 8.75C17.60 8.30 17.37 7.91 17.08 7.60C16.79 7.29 16.42 7.04 16.00 6.87C15.58 6.71 15.12 6.62 14.60 6.62ZM14.60 12.95C14.24 12.95 13.93 12.87 13.68 12.75C13.43 12.64 13.20 12.47 13.03 12.25C12.87 12.03 12.73 11.75 12.64 11.41C12.56 11.07 12.50 10.71 12.50 10.29C12.50 9.87 12.56 9.48 12.64 9.14C12.73 8.81 12.87 8.53 13.03 8.30C13.20 8.08 13.43 7.88 13.68 7.77C13.93 7.66 14.24 7.60 14.60 7.60C15.30 7.60 15.83 7.83 16.17 8.30C16.51 8.78 16.69 9.44 16.69 10.28C16.69 11.12 16.51 11.77 16.17 12.25C15.83 12.73 15.30 12.95 14.60 12.95ZM21.53 6.61C21.14 6.61 20.79 6.65 20.45 6.76C20.12 6.87 19.82 7.03 19.59 7.22C19.35 7.42 19.17 7.66 19.03 7.94C18.89 8.22 18.83 8.54 18.83 8.88C18.83 9.31 18.93 9.69 19.12 10.01C19.32 10.33 19.60 10.60 19.95 10.79C19.81 10.88 19.67 10.95 19.56 11.05C19.45 11.14 19.35 11.24 19.26 11.35C19.18 11.47 19.12 11.58 19.10 11.69C19.07 11.80 19.04 11.89 19.04 12.00C19.04 12.25 19.11 12.47 19.22 12.63C19.33 12.78 19.50 12.92 19.70 13.01C19.31 13.15 19.00 13.34 18.77 13.59C18.55 13.85 18.44 14.14 18.44 14.49C18.44 14.74 18.51 14.97 18.63 15.19C18.76 15.41 18.96 15.62 19.21 15.79C19.46 15.96 19.78 16.10 20.17 16.21C20.57 16.32 21.03 16.37 21.55 16.37C22.06 16.37 22.53 16.31 22.95 16.17C23.37 16.03 23.70 15.86 23.98 15.64C24.26 15.41 24.50 15.16 24.65 14.88C24.81 14.60 24.88 14.29 24.88 13.99C24.88 13.65 24.82 13.40 24.68 13.20C24.54 13.01 24.36 12.82 24.14 12.71C23.91 12.60 23.65 12.52 23.37 12.46C23.09 12.40 22.79 12.39 22.50 12.36C22.20 12.33 21.91 12.31 21.63 12.31C21.35 12.31 21.08 12.28 20.86 12.25C20.64 12.22 20.45 12.15 20.31 12.07C20.17 11.98 20.12 11.86 20.12 11.69C20.12 11.58 20.15 11.49 20.23 11.38C20.31 11.27 20.43 11.16 20.57 11.07C20.86 11.16 21.17 11.20 21.50 11.20C21.90 11.20 22.25 11.16 22.57 11.05C22.89 10.93 23.17 10.77 23.41 10.57C23.65 10.37 23.81 10.14 23.95 9.86C24.09 9.58 24.15 9.25 24.15 8.92C24.15 8.55 24.09 8.22 23.93 7.91L24.72 7.80C24.92 7.76 25.02 7.66 25.02 7.50L25.02 7.04L23.09 7.04C22.86 6.90 22.62 6.80 22.36 6.73C22.09 6.66 21.81 6.64 21.50 6.64ZM23.72 14.24C23.72 14.43 23.66 14.59 23.56 14.74C23.46 14.90 23.32 15.02 23.14 15.13C22.96 15.25 22.74 15.34 22.47 15.40C22.20 15.46 21.91 15.50 21.57 15.50C21.24 15.50 20.93 15.47 20.68 15.41C20.43 15.36 20.22 15.27 20.05 15.18C19.88 15.08 19.75 14.97 19.67 14.83C19.59 14.69 19.54 14.55 19.54 14.38C19.54 14.13 19.63 13.90 19.80 13.72C19.96 13.54 20.19 13.38 20.45 13.26C20.68 13.29 20.92 13.33 21.17 13.34C21.42 13.36 21.66 13.36 21.91 13.37C22.16 13.38 22.39 13.41 22.61 13.44C22.83 13.47 23.02 13.51 23.18 13.57C23.35 13.62 23.49 13.71 23.59 13.82C23.69 13.93 23.73 14.07 23.73 14.24ZM21.52 10.37C21.27 10.37 21.07 10.35 20.87 10.28C20.68 10.21 20.52 10.11 20.38 9.98C20.24 9.86 20.16 9.70 20.09 9.53C20.02 9.37 19.98 9.17 19.98 8.96C19.98 8.53 20.10 8.18 20.37 7.92C20.64 7.67 21.01 7.55 21.52 7.55C22.02 7.55 22.40 7.67 22.67 7.92C22.93 8.18 23.07 8.53 23.07 8.96C23.07 9.17 23.03 9.37 22.97 9.53C22.92 9.70 22.82 9.87 22.68 10.00C22.54 10.12 22.39 10.22 22.19 10.29C21.99 10.36 21.77 10.40 21.52 10.40ZM29.34 12.94C28.84 12.94 28.48 12.80 28.22 12.50C27.97 12.21 27.86 11.77 27.86 11.24L27.86 6.73L25.59 6.73L25.59 7.32C25.59 7.46 25.68 7.56 25.82 7.59C25.90 7.62 26.15 7.67 26.60 7.76L26.60 11.26C26.60 12.10 26.82 12.73 27.22 13.20C27.64 13.69 28.22 13.94 28.98 13.94C29.88 13.94 30.66 13.57 31.33 12.81L31.43 13.57C31.49 13.73 31.60 13.83 31.77 13.83L33.52 13.83L33.52 13.23C33.52 13.09 33.45 13.01 33.31 12.98C33.22 12.95 32.96 12.89 32.51 12.81L32.51 6.73L31.26 6.73L30.25 6.73L30.25 7.34C30.25 7.48 30.32 7.57 30.46 7.60C30.91 7.69 31.18 7.74 31.26 7.77L31.26 11.97C30.69 12.61 30.04 12.95 29.34 12.95ZM37.49 6.62C36.99 6.62 36.53 6.71 36.11 6.89C35.69 7.07 35.34 7.32 35.06 7.63C34.78 7.94 34.55 8.33 34.40 8.75C34.24 9.17 34.16 9.62 34.16 10.12C34.16 10.74 34.24 11.27 34.41 11.75C34.58 12.22 34.80 12.61 35.11 12.94C35.42 13.26 35.77 13.51 36.19 13.68C36.61 13.85 37.06 13.93 37.55 13.93C37.80 13.93 38.07 13.90 38.32 13.86C38.57 13.82 38.82 13.75 39.07 13.66C39.33 13.58 39.54 13.45 39.76 13.31C39.98 13.17 40.17 13.03 40.32 12.84L39.97 12.38C39.91 12.29 39.84 12.25 39.73 12.25C39.65 12.25 39.56 12.29 39.45 12.36C39.34 12.43 39.20 12.50 39.03 12.59C38.86 12.67 38.67 12.75 38.44 12.82C38.22 12.89 37.94 12.92 37.63 12.92C37.30 12.92 37.02 12.87 36.74 12.75C36.46 12.64 36.23 12.47 36.04 12.25C35.84 12.03 35.67 11.77 35.56 11.44C35.45 11.10 35.39 10.71 35.39 10.26L40.10 10.26C40.21 10.26 40.31 10.22 40.35 10.16C40.39 10.11 40.40 9.97 40.40 9.77C40.40 9.27 40.32 8.82 40.18 8.43C40.04 8.04 39.82 7.70 39.56 7.43C39.31 7.17 39.00 6.97 38.64 6.83C38.28 6.69 37.88 6.62 37.46 6.62ZM37.49 7.55C37.77 7.55 38.04 7.59 38.26 7.69C38.49 7.78 38.68 7.92 38.84 8.09C38.99 8.26 39.09 8.48 39.17 8.72C39.26 8.96 39.30 9.23 39.30 9.51L35.45 9.51C35.53 8.89 35.76 8.40 36.09 8.05C36.43 7.70 36.90 7.53 37.51 7.53ZM51.10 3.79L51.10 4.38C51.10 4.52 51.17 4.62 51.31 4.65C51.39 4.68 51.66 4.73 52.11 4.82L49.57 11.19C49.46 11.44 49.36 11.82 49.25 12.29C49.13 11.79 49.01 11.42 48.92 11.20L46.35 4.83C46.66 4.77 46.90 4.70 47.08 4.68C47.26 4.65 47.36 4.55 47.36 4.41L47.36 3.79L44.03 3.79L44.03 4.41C44.03 4.55 44.10 4.63 44.24 4.66C44.32 4.69 44.56 4.75 44.95 4.83L48.62 13.85L49.84 13.85L53.52 4.83L54.22 4.66C54.36 4.63 54.42 4.55 54.42 4.41L54.42 3.81ZM61.29 12.95C61.21 12.92 60.79 12.84 60.59 12.80L60.59 9.25C60.59 8.86 60.55 8.50 60.44 8.16C60.33 7.83 60.17 7.55 59.96 7.32C59.75 7.10 59.50 6.93 59.19 6.79C58.88 6.65 58.52 6.59 58.13 6.59C57.57 6.59 57.06 6.68 56.62 6.87C56.17 7.07 55.75 7.34 55.36 7.71L55.58 8.11C55.61 8.16 55.66 8.23 55.72 8.27C55.78 8.32 55.86 8.33 55.94 8.33C56.06 8.33 56.15 8.30 56.27 8.22C56.38 8.13 56.52 8.06 56.67 7.97C56.83 7.87 56.99 7.80 57.20 7.71C57.41 7.63 57.67 7.59 57.97 7.59C58.44 7.59 58.79 7.74 59.02 8.02C59.26 8.30 59.39 8.72 59.39 9.28L59.39 9.83C58.58 9.83 57.90 9.88 57.34 10.01C56.78 10.14 56.34 10.32 56 10.51C55.66 10.71 55.40 10.96 55.24 11.21C55.09 11.47 55.02 11.75 55.02 12.03C55.02 12.35 55.06 12.63 55.17 12.87C55.29 13.10 55.43 13.30 55.59 13.45C55.76 13.61 55.99 13.71 56.22 13.79C56.46 13.87 56.70 13.92 56.98 13.92C57.26 13.92 57.51 13.90 57.74 13.85C57.96 13.79 58.16 13.72 58.35 13.64C58.55 13.55 58.74 13.44 58.91 13.30C59.08 13.16 59.28 13.01 59.47 12.84L59.61 13.51C59.64 13.62 59.67 13.71 59.75 13.73C59.84 13.76 59.93 13.79 60.05 13.79L60.49 13.79L60.59 13.79L61.50 13.79L61.50 13.19C61.50 13.06 61.42 12.95 61.29 12.92ZM59.36 12.08C59.22 12.22 59.08 12.36 58.94 12.47C58.80 12.59 58.65 12.70 58.48 12.78C58.31 12.87 58.14 12.92 57.96 12.96C57.78 13.01 57.60 13.03 57.37 13.03C57.20 13.03 57.05 13.01 56.91 12.96C56.77 12.92 56.66 12.87 56.55 12.78C56.43 12.70 56.35 12.59 56.29 12.45C56.24 12.31 56.20 12.17 56.20 11.97C56.20 11.77 56.25 11.61 56.36 11.44C56.48 11.27 56.67 11.13 56.92 11.02C57.18 10.91 57.51 10.79 57.90 10.72C58.30 10.65 58.79 10.63 59.36 10.63ZM65.81 12.94C65.31 12.94 64.95 12.80 64.69 12.50C64.44 12.21 64.33 11.77 64.33 11.24L64.33 6.73L62.06 6.73L62.06 7.32C62.06 7.46 62.15 7.56 62.29 7.59C62.37 7.62 62.62 7.67 63.07 7.76L63.07 11.26C63.07 12.10 63.29 12.73 63.69 13.20C64.11 13.69 64.69 13.94 65.45 13.94C66.35 13.94 67.13 13.57 67.80 12.81L67.90 13.57C67.96 13.73 68.07 13.83 68.24 13.83L69.99 13.83L69.99 13.23C69.99 13.09 69.92 13.01 69.78 12.98C69.69 12.95 69.43 12.89 68.98 12.81L68.98 6.73L67.73 6.73L66.72 6.73L66.72 7.34C66.72 7.48 66.79 7.57 66.93 7.60C67.38 7.69 67.65 7.74 67.73 7.77L67.73 11.97C67.16 12.61 66.51 12.95 65.81 12.95ZM73.85 12.95C73.77 12.92 73.51 12.87 73.07 12.78L73.07 3.50L70.80 3.50L70.80 4.10C70.80 4.24 70.88 4.33 71.02 4.35C71.11 4.38 71.36 4.44 71.81 4.52L71.81 12.80L71.02 12.95C70.88 12.98 70.80 13.08 70.80 13.22L70.80 13.82L74.07 13.82L74.07 13.22C74.07 13.08 73.99 12.98 73.85 12.95ZM77.45 13.93C77.77 13.93 78.08 13.87 78.39 13.76C78.69 13.65 78.95 13.48 79.17 13.29L78.81 12.70C78.75 12.61 78.69 12.59 78.64 12.59C78.61 12.59 78.55 12.61 78.50 12.64C78.44 12.67 78.40 12.71 78.33 12.75C78.26 12.80 78.18 12.84 78.08 12.87C77.98 12.89 77.87 12.92 77.73 12.92C77.50 12.92 77.29 12.85 77.15 12.71C77.01 12.57 76.94 12.35 76.94 12.04L76.94 7.78L78.97 7.78L78.97 6.87L76.94 6.87L76.94 4.44L76.31 4.44C76.23 4.44 76.17 4.45 76.12 4.49C76.06 4.54 76.03 4.59 76.03 4.66L75.75 6.86L74.59 7.01L74.59 7.50C74.59 7.59 74.61 7.67 74.66 7.71C74.72 7.76 74.77 7.77 74.86 7.77L75.71 7.77L75.71 12.11C75.71 12.70 75.85 13.15 76.16 13.45C76.47 13.76 76.89 13.93 77.45 13.93Z"></path></g><defs data-v-fde0c5aa=""><!----></defs><g data-v-fde0c5aa="" id="a340e85f-5412-4f99-a460-46b8b391c543" stroke="none" fill="#9D4EDD" transform="matrix(1.1065243524738473,0,0,1.1065243524738473,33.71715422856896,121.2303673633119)"><path d="M43.322 50H8.678c-1.654 0-3-1.345-3-3V12.316c0-1.087.59-2.092 1.54-2.62l6.471-3.606 2.92-3.707A1 1 0 0117.397 2h17.208c.306 0 .596.14.786.38l2.92 3.708 6.472 3.605c.95.53 1.54 1.534 1.54 2.621v34.686c0 1.654-1.346 3-3 3zM17.88 4l-2.745 3.484c-.082.104-.183.19-.299.255L8.191 11.44a1.001 1.001 0 00-.513.874v34.686c0 .55.449 1 1 1h34.644c.551 0 1-.45 1-1V12.315a1 1 0 00-.514-.874L37.162 7.74a1.005 1.005 0 01-.299-.255L34.12 4H17.88z"></path><path d="M20.674 20.279a1 1 0 01-.891-.546L13.46 7.319a1 1 0 01.106-1.072l3.045-3.865a1.001 1.001 0 011.5-.081l8.604 8.783a.999.999 0 01.1 1.279l-5.325 7.495a1 1 0 01-.815.42zM15.532 6.982l5.284 10.372 3.885-5.468-7.224-7.373-1.945 2.469z"></path><path d="M31.325 20.279a1 1 0 01-.815-.421l-5.325-7.495a.999.999 0 01.1-1.279l8.605-8.783a1.001 1.001 0 011.5.081l3.045 3.865a1 1 0 01.105 1.072l-6.324 12.414a1.001 1.001 0 01-.89.546zM27.3 11.886l3.885 5.467 5.283-10.371-1.945-2.47-7.223 7.374z"></path><path d="M28.18 25.42h-4.36a1 1 0 01-.87-.507l-2.866-5.057a1 1 0 01.038-1.047l5.045-7.58a1 1 0 011.666 0l5.038 7.58c.208.314.222.717.037 1.046l-2.858 5.057a1 1 0 01-.87.508zm-3.777-2h3.193l2.27-4.015L26 13.589l-3.872 5.816 2.275 4.015z"></path><path d="M26 44.642a.996.996 0 01-.706-.291l-4.015-4a1.001 1.001 0 01-.286-.832l1.894-15.223a1 1 0 01.992-.876h4.242a1 1 0 01.992.876l1.894 15.223c.038.306-.068.613-.286.832l-4.015 4a.996.996 0 01-.706.291zm-2.962-5.363L26 42.231l2.962-2.952-1.724-13.859h-2.476l-1.724 13.86z"></path></g><defs data-v-fde0c5aa=""><!----></defs><g data-v-fde0c5aa="" id="eec4e067-9fe5-4713-9a0b-1ba8de9752b4" fill="#9D4EDD" transform="matrix(0.647091823967342,0,0,0.647091823967342,97.1075755260555,160.85585071366987)"><path d="M8.47 3.78L8.47 9.65Q8.47 11.35 7.55 12.26Q6.62 13.16 4.91 13.16L4.91 13.16Q3.21 13.16 2.27 12.26Q1.34 11.35 1.34 9.65L1.34 9.65L1.34 3.78L2.04 3.78L2.04 9.51Q2.04 10.99 2.77 11.75Q3.50 12.52 4.91 12.52L4.91 12.52Q6.31 12.52 7.04 11.75Q7.77 10.99 7.77 9.51L7.77 9.51L7.77 3.78L8.47 3.78ZM25.37 3.78L25.37 13.02L24.50 13.02L19.60 5.77L18.91 4.54L18.90 4.54L18.94 5.70L18.94 13.02L18.27 13.02L18.27 3.78L19.15 3.78L24.04 11.02L24.74 12.26L24.71 11.10L24.71 3.78L25.37 3.78ZM35.98 12.38L41.52 12.38L41.52 13.02L35.28 13.02L35.28 3.78L35.98 3.78L35.98 12.38ZM53.41 3.64Q54.71 3.64 55.67 4.22Q56.63 4.80 57.15 5.87Q57.67 6.94 57.67 8.40L57.67 8.40Q57.67 9.86 57.15 10.93Q56.63 12.00 55.67 12.58Q54.71 13.16 53.41 13.16L53.41 13.16Q52.11 13.16 51.15 12.58Q50.19 12.00 49.67 10.93Q49.15 9.86 49.15 8.40L49.15 8.40Q49.15 6.94 49.67 5.87Q50.19 4.80 51.15 4.22Q52.11 3.64 53.41 3.64L53.41 3.64ZM53.41 4.28Q52.33 4.28 51.54 4.78Q50.75 5.28 50.32 6.21Q49.90 7.14 49.90 8.40L49.90 8.40Q49.90 9.66 50.32 10.59Q50.75 11.52 51.54 12.02Q52.33 12.52 53.41 12.52L53.41 12.52Q54.49 12.52 55.29 12.02Q56.08 11.52 56.51 10.59Q56.94 9.66 56.94 8.40L56.94 8.40Q56.94 7.14 56.51 6.21Q56.08 5.28 55.29 4.78Q54.49 4.28 53.41 4.28L53.41 4.28ZM74.30 10.68Q73.91 11.86 72.93 12.51Q71.96 13.16 70.60 13.16L70.60 13.16Q69.34 13.16 68.39 12.58Q67.44 12.00 66.92 10.92Q66.40 9.84 66.40 8.40L66.40 8.40Q66.40 6.96 66.92 5.88Q67.44 4.80 68.39 4.22Q69.34 3.64 70.59 3.64L70.59 3.64Q73.36 3.64 74.17 5.92L74.17 5.92L73.49 6.24Q73.16 5.26 72.46 4.77Q71.75 4.28 70.63 4.28L70.63 4.28Q69.59 4.28 68.80 4.78Q68.01 5.28 67.58 6.21Q67.14 7.14 67.14 8.40L67.14 8.40Q67.14 9.66 67.57 10.59Q68.00 11.52 68.77 12.02Q69.55 12.52 70.60 12.52L70.60 12.52Q71.72 12.52 72.51 11.97Q73.29 11.42 73.60 10.42L73.60 10.42L74.30 10.68ZM89.29 13.02L85.90 8.04L84.06 9.91L84.06 13.02L83.36 13.02L83.36 3.78L84.06 3.78L84.06 8.96L89.12 3.78L90.05 3.78L86.39 7.52L90.15 13.02L89.29 13.02ZM115.56 3.78L112.28 9.42L112.28 13.02L111.58 13.02L111.58 9.42L108.30 3.78L109.13 3.78L111.93 8.69L114.73 3.78L115.56 3.78ZM127.53 3.64Q128.83 3.64 129.79 4.22Q130.75 4.80 131.26 5.87Q131.78 6.94 131.78 8.40L131.78 8.40Q131.78 9.86 131.26 10.93Q130.75 12.00 129.79 12.58Q128.83 13.16 127.53 13.16L127.53 13.16Q126.22 13.16 125.27 12.58Q124.31 12.00 123.79 10.93Q123.27 9.86 123.27 8.40L123.27 8.40Q123.27 6.94 123.79 5.87Q124.31 4.80 125.27 4.22Q126.22 3.64 127.53 3.64L127.53 3.64ZM127.53 4.28Q126.45 4.28 125.66 4.78Q124.87 5.28 124.44 6.21Q124.01 7.14 124.01 8.40L124.01 8.40Q124.01 9.66 124.44 10.59Q124.87 11.52 125.66 12.02Q126.45 12.52 127.53 12.52L127.53 12.52Q128.60 12.52 129.40 12.02Q130.20 11.52 130.63 10.59Q131.05 9.66 131.05 8.40L131.05 8.40Q131.05 7.14 130.63 6.21Q130.20 5.28 129.40 4.78Q128.60 4.28 127.53 4.28L127.53 4.28ZM148.12 3.78L148.12 9.65Q148.12 11.35 147.20 12.26Q146.27 13.16 144.56 13.16L144.56 13.16Q142.86 13.16 141.93 12.26Q140.99 11.35 140.99 9.65L140.99 9.65L140.99 3.78L141.69 3.78L141.69 9.51Q141.69 10.99 142.42 11.75Q143.15 12.52 144.56 12.52L144.56 12.52Q145.96 12.52 146.69 11.75Q147.42 10.99 147.42 9.51L147.42 9.51L147.42 3.78L148.12 3.78ZM164.86 13.02L164.04 13.02L161.39 9.02L161.35 9.02L158.62 9.02L158.62 13.02L157.92 13.02L157.92 3.78L161.35 3.78Q162.74 3.78 163.56 4.48Q164.37 5.18 164.37 6.40L164.37 6.40Q164.37 7.41 163.79 8.07Q163.20 8.74 162.18 8.93L162.18 8.93L164.86 13.02ZM158.62 4.42L158.62 8.36L161.34 8.36Q162.46 8.36 163.05 7.85Q163.65 7.35 163.65 6.40L163.65 6.40Q163.65 5.45 163.05 4.93Q162.46 4.42 161.34 4.42L161.34 4.42L158.62 4.42ZM188.12 3.64Q190.72 3.64 191.60 5.68L191.60 5.68L191.00 6.17Q190.65 5.18 189.96 4.73Q189.27 4.28 188.13 4.28L188.13 4.28Q187.32 4.28 186.72 4.54Q186.12 4.79 185.80 5.22Q185.49 5.66 185.49 6.20L185.49 6.20Q185.49 6.73 185.75 7.08Q186.02 7.43 186.66 7.68Q187.29 7.92 188.41 8.12L188.41 8.12Q190.22 8.43 190.97 9.02Q191.73 9.60 191.73 10.64L191.73 10.64Q191.73 11.38 191.30 11.96Q190.86 12.53 190.07 12.84Q189.28 13.16 188.26 13.16L188.26 13.16Q186.80 13.16 185.80 12.58Q184.80 12.00 184.44 10.95L184.44 10.95L185.05 10.47Q185.33 11.47 186.18 11.99Q187.03 12.52 188.27 12.52L188.27 12.52Q189.48 12.52 190.24 12.03Q191.00 11.54 191.00 10.68L191.00 10.68Q191.00 9.94 190.38 9.51Q189.76 9.07 188.22 8.81L188.22 8.81Q186.91 8.58 186.16 8.26Q185.40 7.94 185.07 7.46Q184.74 6.99 184.74 6.27L184.74 6.27Q184.74 5.56 185.16 4.96Q185.57 4.35 186.33 4.00Q187.10 3.64 188.12 3.64L188.12 3.64ZM206.81 3.78L206.81 4.42L203.43 4.42L203.43 13.02L202.73 13.02L202.73 4.42L199.36 4.42L199.36 3.78L206.81 3.78ZM221.55 3.78L218.27 9.42L218.27 13.02L217.57 13.02L217.57 9.42L214.30 3.78L215.12 3.78L217.92 8.69L220.72 3.78L221.55 3.78ZM230.89 12.38L236.43 12.38L236.43 13.02L230.19 13.02L230.19 3.78L230.89 3.78L230.89 12.38ZM245.90 12.38L251.73 12.38L251.73 13.02L245.20 13.02L245.20 3.78L251.51 3.78L251.51 4.42L245.90 4.42L245.90 7.99L250.33 7.99L250.33 8.65L245.90 8.65L245.90 12.38Z"></path></g></svg>