<svg xmlns="http://www.w3.org/2000/svg" version="1.1" xmlns:xlink="http://www.w3.org/1999/xlink" xmlns:svgjs="http://svgjs.dev/svgjs" viewBox="0 0 800 800"><defs><filter id="uuunion-blur" x="-100%" y="-100%" width="400%" height="400%" color-interpolation-filters="sRGB">
        <feGaussianBlur in="SourceGraphic" stdDeviation="0 0" result="blur"></feGaussianBlur>
        <feDropShadow stdDeviation="0" in="blur" dx="0" dy="0" flood-color="#ed6094" flood-opacity="0" x="0%" y="0%" width="100%" height="100%"></feDropShadow>
      </filter><filter id="uuunion-blur2" x="-100%" y="-100%" width="400%" height="400%" color-interpolation-filters="sRGB">
        <feGaussianBlur in="SourceGraphic" stdDeviation="0 0" result="blur"></feGaussianBlur>
        <feDropShadow stdDeviation="0" in="blur" dx="-0" dy="-0" flood-color="#ed6094" flood-opacity="0" x="0%" y="0%" width="100%" height="100%"></feDropShadow>
      </filter><linearGradient gradientTransform="rotate(101, 0.5, 0.5)" x1="50%" y1="0%" x2="50%" y2="100%" id="uuunion-grad"><stop stop-color="#f6e1d6" offset="10%"></stop><stop stop-color="#ed6094" offset="90%"></stop></linearGradient><linearGradient gradientTransform="rotate(0, 0.5, 0.5)" x1="50%" y1="0%" x2="50%" y2="100%" id="uuunion-grad2"><stop stop-color="#f6e1d6" offset="25%"></stop><stop stop-color="#ed6094" offset="100%"></stop></linearGradient><linearGradient gradientTransform="rotate(278, 0.5, 0.5)" x1="50%" y1="0%" x2="50%" y2="100%" id="uuunion-grad3"><stop stop-color="#f6e1d6" offset="0%"></stop><stop stop-color="#ed6094" offset="75%"></stop></linearGradient></defs><path d="M-80.37 -86.24Q-65.47 -82.39 -50.58 -78.13 -35.68 -74.19 -20.78 -71.24 -5.89 -69.79 9 -70.09 23.89 -72.08 38.79 -75.43 53.68 -79.55 68.58 -83.75 83.47 -87.31 98.37 -89.62 113.27 -90.28 128.16 -89.18 143.06 -86.51 157.95 -82.72 172.85 -78.47 187.74 -74.48 202.64 -71.43 217.53 -69.85 232.43 -70 247.33 -71.87 262.22 -75.12 277.12 -79.21 292.01 -83.43 306.91 -87.07 321.8 -89.49 336.7 -90.29 351.59 -89.33 366.49 -86.77 381.39 -83.05 396.28 -78.81 411.18 -74.77 426.07 -71.62 440.97 -69.91 455.86 -69.92 470.76 -71.66 485.65 -74.82 500.55 -78.87 515.45 -83.11 530.34 -86.82 545.24 -89.36 560.13 -90.29 575.03 -89.47 589.92 -87.02 604.82 -83.37 619.71 -79.15 634.61 -75.07 649.51 -71.83 664.4 -69.99 679.3 -69.86 694.19 -71.46 709.09 -74.53 723.98 -78.53 738.88 -82.78 753.77 -86.56 768.67 -89.21 783.57 -90.28 798.46 -89.6 813.36 -87.27 828.25 -83.7 843.15 -79.49 858.04 -75.37 872.94 -72.04 872.4 -57.08 872.86 -42.13 874.27 -27.17 876.43 -12.21 879.07 2.73 881.83 17.69 884.35 32.65 886.29 47.6 887.4 62.56 887.52 77.52 886.66 92.47 884.91 107.43 882.51 122.39 879.77 137.34 877.07 152.3 874.75 167.25 873.13 182.21 872.42 197.17 872.71 212.12 873.96 227.08 876.01 242.04 878.59 256.99 881.36 271.95 883.94 286.91 886 301.86 887.27 316.82 887.57 331.78 886.88 346.73 885.27 361.69 882.96 376.65 880.26 391.6 877.52 406.56 875.12 421.52 873.35 436.47 872.47 451.43 872.58 466.39 873.68 481.34 875.61 496.3 878.12 511.26 880.88 526.21 883.52 541.17 885.7 556.13 887.12 571.08 887.59 586.04 887.07 601 885.6 615.95 883.4 630.91 880.74 645.86 877.99 660.82 875.5 675.78 873.6 690.73 872.56 705.69 872.49 720.65 873.42 735.6 875.22 750.56 877.66 765.52 880.4 780.47 883.09 795.43 885.36 810.39 886.93 825.34 887.58 840.3 887.23 855.26 885.92 870.21 883.82 885.17 868.77 883 853.71 880.32 838.65 877.59 823.6 875.26 808.54 873.75 793.48 873.3 778.43 874 763.37 875.73 748.31 878.18 733.26 880.95 718.2 883.55 703.14 885.54 688.09 886.59 673.03 886.51 657.97 885.31 642.92 883.2 627.86 880.55 612.8 877.8 597.75 875.42 582.69 873.83 567.63 873.3 552.58 873.91 537.52 875.56 522.46 877.97 507.41 880.73 492.35 883.36 477.29 885.42 462.24 886.55 447.18 886.55 432.12 885.44 417.07 883.39 402.01 880.77 386.95 878.01 371.9 875.59 356.84 873.92 341.78 873.3 326.73 873.82 311.67 875.39 296.61 877.76 281.56 880.51 266.5 883.17 251.44 885.28 236.39 886.5 221.33 886.6 206.27 885.57 191.22 883.58 176.16 880.99 161.1 878.22 146.05 875.76 130.99 874.02 115.93 873.3 100.88 873.73 85.82 875.23 70.76 877.55 55.71 880.28 40.65 882.97 25.59 885.14 10.54 886.44 -4.51 886.63 -19.57 885.69 -34.62 883.77 -49.68 881.21 -64.74 878.44 -79.79 875.93 -79.68 860.9 -79.61 845.86 -79.6 830.83 -79.63 815.8 -79.71 800.76 -79.83 785.73 -79.97 770.69 -80.12 755.66 -80.25 740.63 -80.34 725.59 -80.39 710.56 -80.39 695.52 -80.33 680.49 -80.23 665.46 -80.1 650.42 -79.96 635.39 -79.82 620.35 -79.7 605.32 -79.62 590.28 -79.6 575.25 -79.62 560.22 -79.69 545.18 -79.81 530.15 -79.95 515.11 -80.09 500.08 -80.23 485.05 -80.33 470.01 -80.39 454.98 -80.39 439.94 -80.34 424.91 -80.25 409.88 -80.13 394.84 -79.98 379.81 -79.84 364.77 -79.72 349.74 -79.63 334.7 -79.6 319.67 -79.61 304.64 -79.68 289.6 -79.79 274.57 -79.92 259.53 -80.07 244.5 -80.2 229.47 -80.31 214.43 -80.38 199.4 -80.39 184.36 -80.36 169.33 -80.27 154.3 -80.15 139.26 -80.01 124.23 -79.86 109.19 -79.74 94.16 -79.64 79.13 -79.6 64.09 -79.61 49.06 -79.66 34.02 -79.77 18.99 -79.9 3.95 -80.04 -11.07 -80.18 -26.1 -80.3 -41.14 -80.37 -56.17 -80.39 -71.21 -80.37 -86.24" fill="url(#uuunion-grad)"></path><path d="M-80.37 -86.24Q-80.39 -71.21 -80.37 -56.17 -80.3 -41.14 -80.18 -26.1 -80.04 -11.07 -79.9 3.95 -79.77 18.99 -79.66 34.02 -79.61 49.06 -79.6 64.09 -79.64 79.13 -79.74 94.16 -79.86 109.19 -80.01 124.23 -80.15 139.26 -80.27 154.3 -80.36 169.33 -80.39 184.36 -80.38 199.4 -80.31 214.43 -80.2 229.47 -80.07 244.5 -79.92 259.53 -79.79 274.57 -79.68 289.6 -79.61 304.64 -79.6 319.67 -79.63 334.7 -79.72 349.74 -79.84 364.77 -79.98 379.81 -80.13 394.84 -70.15 396.89 -60.17 399.18 -50.2 401.53 -40.22 403.77 -30.25 405.71 -20.27 407.22 -1.57 408.41 1.65 408.48 14.26 401.59 26.89 393.76 39.55 385.18 52.24 376.11 64.95 366.9 77.67 357.89 90.39 349.41 103.1 341.74 115.81 335.04 128.49 329.37 141.13 324.68 153.74 320.78 166.3 317.39 178.81 314.18 191.26 310.78 203.64 306.86 215.96 302.13 228.22 296.42 240.41 289.64 252.55 281.86 264.63 273.25 276.66 264.1 288.66 254.74 300.63 245.54 312.59 236.86 324.55 228.98 336.52 222.11 348.52 216.33 360.55 211.58 372.64 207.69 384.8 204.38 397.03 201.31 409.36 198.1 421.77 194.39 434.29 189.87 446.91 184.33 459.63 177.68 472.46 169.97 485.38 161.36 498.39 152.12 511.48 142.62 524.64 133.24 537.85 124.35 551.09 116.27 564.35 109.21 577.61 103.29 590.85 98.46 604.05 94.57 617.18 91.34 630.24 88.41 643.2 85.38 656.05 81.88 668.77 77.57 681.36 72.22 693.81 65.72 706.11 58.08 718.27 49.48 730.28 40.18 742.16 30.55 753.91 20.99 765.55 11.88 777.1 3.58 788.57 -3.66 800 -9.73 797.1 -27.29 794.72 -44.86 793.29 -62.42 793.06 -79.98 794.08 -97.55 796.16 -115.11 798.92 -132.68 801.88 -150.24 786.95 -150.34 772.01 -148.7 757.07 -145.58 742.14 -141.52 727.2 -137.2 712.26 -133.36 697.33 -130.63 682.39 -129.49 667.46 -130.12 652.52 -132.42 637.58 -136.01 622.65 -140.26 607.71 -144.47 592.77 -147.93 577.84 -150.04 562.9 -150.46 547.96 -149.1 533.03 -146.21 518.09 -142.27 503.15 -137.94 488.22 -133.96 473.28 -131 458.35 -129.56 443.41 -129.88 428.47 -131.92 413.54 -135.31 398.6 -139.5 383.66 -143.77 368.73 -147.41 353.79 -149.79 338.85 -150.51 323.92 -149.46 308.98 -146.81 294.05 -143.01 279.11 -138.69 264.17 -134.6 249.24 -131.42 234.3 -129.69 219.36 -129.7 204.43 -131.45 189.49 -134.64 174.55 -138.74 159.62 -143.05 144.68 -146.85 129.74 -149.48 114.81 -150.51 99.87 -149.77 84.94 -147.37 70 -143.73 55.06 -139.45 40.13 -135.27 25.19 -131.88 10.25 -129.87 -4.67 -129.57 -19.61 -131.03 -34.55 -134 -49.48 -137.99 -64.42 -142.32 -79.35 -146.25 -94.29 -149.13 -109.23 -150.46 -124.16 -150.02 -134.09 -135.39 -117.05 -120.35 -107.86 -112.77 -98.69 -104.51 -89.52 -95.64 -80.37 -86.24" fill="url(#uuunion-grad2)" filter="url(#uuunion-blur)"></path><path d="M797.72 391.72Q807.69 392.57 817.67 393.99 827.64 395.87 837.62 398.07 847.6 400.41 857.57 402.72 867.55 404.83 877.52 406.56 875.12 421.52 873.35 436.47 872.47 451.43 872.58 466.39 873.68 481.34 875.61 496.3 878.12 511.26 880.88 526.21 883.52 541.17 885.7 556.13 887.12 571.08 887.59 586.04 887.07 601 885.6 615.95 883.4 630.91 880.74 645.86 877.99 660.82 875.5 675.78 873.6 690.73 872.56 705.69 872.49 720.65 873.42 735.6 875.22 750.56 877.66 765.52 880.4 780.47 883.09 795.43 885.36 810.39 886.93 825.34 887.58 840.3 887.23 855.26 885.92 870.21 883.82 885.17 870 883.21 856.19 880.78 842.37 878.24 828.55 875.96 814.73 874.25 800.92 873.38 787.1 873.46 773.28 874.49 759.46 876.31 745.65 878.66 731.83 881.21 718.01 883.58 704.19 885.43 690.38 886.5 676.56 886.63 662.74 885.8 648.92 884.13 635.11 881.87 621.29 879.33 607.47 876.89 593.65 874.9 579.83 873.64 566.02 873.31 552.2 873.93 538.38 875.44 524.56 877.6 510.75 880.11 496.93 882.6 483.11 884.72 469.29 886.15 455.48 886.69 441.66 886.27 427.84 884.94 414.02 882.9 400.21 880.43 386.39 877.91 372.57 875.68 358.75 874.08 344.94 873.33 331.12 873.55 317.3 874.69 303.48 876.6 289.66 879.01 275.85 881.55 262.03 883.87 248.21 885.63 234.39 886.58 220.58 886.57 206.76 885.62 192.94 883.85 179.12 881.53 165.31 878.98 151.49 876.58 137.67 874.68 123.85 873.54 110.04 873.34 96.22 874.09 82.4 875.7 68.58 877.93 54.77 880.46 40.95 882.92 27.13 884.96 6.5 881.5 -0.15 866.77 -0.05 856.8 0 846.84 -0.02 836.88 -0.09 826.92 -0.05 811.97 0.61 807 13.03 800.35 25.41 792.91 37.76 784.81 50.07 776.28 62.35 767.57 74.61 758.99 86.84 750.82 99.07 743.28 111.29 736.54 123.52 730.65 135.77 725.59 148.04 721.22 160.35 717.3 172.69 713.58 185.09 709.74 197.55 705.5 210.07 700.61 222.65 694.91 235.3 688.33 248.02 680.89 260.81 672.74 273.66 664.1 286.57 655.25 299.52 646.51 312.52 638.16 325.54 630.48 338.58 623.62 351.62 617.67 364.65 612.61 377.65 608.28 390.61 604.47 403.51 600.89 416.35 597.22 429.11 593.14 441.77 588.41 454.34 582.82 466.81 576.3 479.17 568.88 491.41 560.68 503.56 551.95 515.6 542.96 527.55 534.05 539.41 525.54 551.21 517.7 562.94 510.72 574.64 504.7 586.32 499.61 598 495.33 609.7 491.61 621.44 488.17 633.23 484.66 645.11 480.76 657.09 476.18 669.18 470.72 681.39 464.28 693.75 456.88 706.25 448.65 718.89 439.82 731.69 430.69 744.64 421.62 757.73 412.94 770.95 404.93 791 394.77 797.72 391.72" fill="url(#uuunion-grad3)" filter="url(#uuunion-blur2)"></path></svg>